<svg width="18" height="18" viewBox="0 0 18 18" fill="none" xmlns="http://www.w3.org/2000/svg">
<path d="M16.2559 10.9988L15.1045 10.0144C15.159 9.68045 15.1871 9.33944 15.1871 8.99842C15.1871 8.65741 15.159 8.31639 15.1045 7.98241L16.2559 6.99803C16.3427 6.92369 16.4049 6.82467 16.4341 6.71415C16.4633 6.60362 16.4581 6.48682 16.4193 6.37929L16.4035 6.33358C16.0866 5.44769 15.6119 4.62646 15.0025 3.90956L14.9709 3.87265C14.897 3.78573 14.7985 3.72325 14.6883 3.69344C14.5782 3.66363 14.4616 3.66789 14.3539 3.70566L12.9248 4.21367C12.3975 3.78124 11.8086 3.44023 11.1723 3.20117L10.8963 1.70703C10.8755 1.5946 10.8209 1.49118 10.7399 1.41048C10.6589 1.32979 10.5553 1.27566 10.4428 1.25527L10.3953 1.24648C9.4795 1.08125 8.51622 1.08125 7.6004 1.24648L7.55294 1.25527C7.44043 1.27566 7.33679 1.32979 7.25578 1.41048C7.17478 1.49118 7.12024 1.5946 7.09942 1.70703L6.82169 3.2082C6.19043 3.44731 5.60258 3.78814 5.08145 4.21718L3.6418 3.70566C3.53416 3.66759 3.41749 3.66317 3.30728 3.693C3.19707 3.72283 3.09855 3.78549 3.02481 3.87265L2.99317 3.90956C2.38452 4.62697 1.90996 5.44806 1.59219 6.33358L1.57637 6.37929C1.49727 6.59901 1.56231 6.84511 1.73985 6.99803L2.90528 7.99295C2.85079 8.32342 2.82442 8.66092 2.82442 8.99666C2.82442 9.33416 2.85079 9.67166 2.90528 10.0004L1.73985 10.9953C1.653 11.0696 1.59085 11.1687 1.56165 11.2792C1.53245 11.3897 1.53758 11.5065 1.57637 11.614L1.59219 11.6597C1.91036 12.5457 2.38145 13.3631 2.99317 14.0838L3.02481 14.1207C3.09873 14.2076 3.19726 14.2701 3.3074 14.2999C3.41754 14.3297 3.53413 14.3254 3.6418 14.2877L5.08145 13.7761C5.60528 14.2068 6.19063 14.5478 6.82169 14.7851L7.09942 16.2863C7.12024 16.3987 7.17478 16.5022 7.25578 16.5828C7.33679 16.6635 7.44043 16.7177 7.55294 16.7381L7.6004 16.7468C8.52463 16.913 9.47108 16.913 10.3953 16.7468L10.4428 16.7381C10.5553 16.7177 10.6589 16.6635 10.7399 16.5828C10.8209 16.5022 10.8755 16.3987 10.8963 16.2863L11.1723 14.7922C11.8083 14.5537 12.4005 14.2116 12.9248 13.7797L14.3539 14.2877C14.4616 14.3257 14.5782 14.3302 14.6884 14.3003C14.7986 14.2705 14.8972 14.2078 14.9709 14.1207L15.0025 14.0838C15.6143 13.3613 16.0854 12.5457 16.4035 11.6597L16.4193 11.614C16.4984 11.3978 16.4334 11.1517 16.2559 10.9988ZM13.8565 8.18983C13.9004 8.45526 13.9233 8.72772 13.9233 9.00018C13.9233 9.27264 13.9004 9.5451 13.8565 9.81053L13.7404 10.5154L15.0535 11.6386C14.8545 12.0972 14.6032 12.5314 14.3047 12.9324L12.6734 12.3541L12.1215 12.8076C11.7014 13.1521 11.2338 13.4228 10.7275 13.6127L10.0578 13.864L9.74317 15.5691C9.24671 15.6254 8.74549 15.6254 8.24903 15.5691L7.93438 13.8605L7.26993 13.6056C6.76895 13.4158 6.30313 13.1451 5.88653 12.8023L5.33458 12.347L3.69278 12.9306C3.39395 12.5281 3.14434 12.0939 2.94395 11.6369L4.2711 10.5031L4.15684 9.79998C4.11465 9.53807 4.0918 9.26737 4.0918 9.00018C4.0918 8.73123 4.1129 8.46229 4.15684 8.20038L4.2711 7.49725L2.94395 6.36347C3.14258 5.90468 3.39395 5.47226 3.69278 5.06972L5.33458 5.65331L5.88653 5.19804C6.30313 4.85527 6.76895 4.58456 7.26993 4.39472L7.93614 4.14335L8.25079 2.43476C8.74473 2.37851 9.24923 2.37851 9.74493 2.43476L10.0596 4.13984L10.7293 4.3912C11.2338 4.58105 11.7031 4.85175 12.1233 5.19628L12.6752 5.6498L14.3065 5.07148C14.6053 5.47401 14.8549 5.90819 15.0553 6.36522L13.7422 7.48846L13.8565 8.18983ZM8.99962 5.73065C7.29102 5.73065 5.90586 7.11581 5.90586 8.8244C5.90586 10.533 7.29102 11.9181 8.99962 11.9181C10.7082 11.9181 12.0934 10.533 12.0934 8.8244C12.0934 7.11581 10.7082 5.73065 8.99962 5.73065ZM10.3918 10.2166C10.2092 10.3997 9.9922 10.5449 9.75328 10.6439C9.51435 10.7428 9.25822 10.7935 8.99962 10.7931C8.47403 10.7931 7.98008 10.5875 7.60743 10.2166C7.4243 10.034 7.27909 9.81698 7.18014 9.57806C7.08119 9.33913 7.03046 9.083 7.03087 8.8244C7.03087 8.29881 7.23653 7.80487 7.60743 7.43221C7.98008 7.05956 8.47403 6.85565 8.99962 6.85565C9.5252 6.85565 10.0191 7.05956 10.3918 7.43221C10.5749 7.61481 10.7201 7.83181 10.8191 8.07074C10.918 8.30966 10.9688 8.56579 10.9684 8.8244C10.9684 9.34998 10.7627 9.84393 10.3918 10.2166Z" fill="black"/>
</svg>
