<svg width="18" height="18" viewBox="0 0 18 18" fill="none" xmlns="http://www.w3.org/2000/svg">
<path d="M12.6562 5.0625H2.53125C2.15841 5.06291 1.80097 5.2112 1.53733 5.47483C1.2737 5.73847 1.12541 6.09592 1.125 6.46875V14.3438C1.12541 14.7166 1.2737 15.074 1.53733 15.3377C1.80097 15.6013 2.15841 15.7496 2.53125 15.75H12.6562C13.0291 15.7496 13.3865 15.6013 13.6502 15.3377C13.9138 15.074 14.0621 14.7166 14.0625 14.3438V6.46875C14.0621 6.09592 13.9138 5.73847 13.6502 5.47483C13.3865 5.2112 13.0291 5.06291 12.6562 5.0625ZM12.375 14.0625H2.8125V6.75H12.375V14.0625ZM16.875 3.65625V12.375C16.875 12.5988 16.7861 12.8134 16.6279 12.9716C16.4696 13.1299 16.255 13.2188 16.0312 13.2188C15.8075 13.2188 15.5929 13.1299 15.4346 12.9716C15.2764 12.8134 15.1875 12.5988 15.1875 12.375V3.9375H4.5C4.27622 3.9375 4.06161 3.84861 3.90338 3.69037C3.74514 3.53214 3.65625 3.31753 3.65625 3.09375C3.65625 2.86997 3.74514 2.65536 3.90338 2.49713C4.06161 2.33889 4.27622 2.25 4.5 2.25H15.4687C15.8416 2.25041 16.199 2.3987 16.4627 2.66233C16.7263 2.92597 16.8746 3.28341 16.875 3.65625Z" fill="black"/>
</svg>
