<svg width="18" height="18" viewBox="0 0 18 18" fill="none" xmlns="http://www.w3.org/2000/svg">
<path d="M2.37151 3.35151C3.24156 2.4813 4.40851 1.97232 5.63821 1.9267C6.86791 1.88107 8.06937 2.30217 9.00151 3.10551C9.93283 2.30351 11.1327 1.88288 12.3609 1.92783C13.5891 1.97278 14.7551 2.47999 15.6253 3.34791C16.4955 4.21584 17.0057 5.38043 17.0539 6.60852C17.1021 7.83662 16.6846 9.0376 15.885 9.97101L10.0613 15.8135C9.7937 16.0812 9.43485 16.2378 9.05665 16.252C8.67846 16.2662 8.30888 16.1369 8.02201 15.89L7.93951 15.8143L2.11651 9.97101C1.31738 9.0384 0.899699 7.83854 0.946976 6.61129C0.994252 5.38405 1.503 4.21987 2.37151 3.35151ZM3.43201 4.41201C2.8187 5.0255 2.46515 5.85159 2.44477 6.71883C2.42438 7.58608 2.7387 8.42787 3.32251 9.06951L3.43201 9.18501L9.00076 14.7538L12.978 10.7758L10.3268 8.12451L9.53176 8.91951C9.32286 9.12851 9.07484 9.29431 8.80186 9.40746C8.52889 9.52061 8.23629 9.57888 7.94079 9.57895C7.34401 9.57909 6.77161 9.34215 6.34951 8.92026C5.92742 8.49836 5.69021 7.92607 5.69007 7.32929C5.68993 6.7325 5.92687 6.1601 6.34876 5.73801L7.92526 4.16076C7.29787 3.66004 6.51257 3.39927 5.71028 3.42525C4.90799 3.45123 4.14121 3.76225 3.54751 4.30251L3.43201 4.41201ZM9.79651 6.53301C9.93716 6.3924 10.1279 6.31342 10.3268 6.31342C10.5256 6.31342 10.7164 6.3924 10.857 6.53301L14.0385 9.71451L14.5695 9.18501C15.1931 8.56186 15.5481 7.71945 15.5586 6.83793C15.5692 5.95641 15.2343 5.10577 14.6258 4.46792C14.0172 3.83008 13.1833 3.45566 12.3022 3.42475C11.4212 3.39383 10.563 3.70888 9.91126 4.30251L9.79651 4.41201L7.41001 6.79851C7.28002 6.92842 7.20224 7.10154 7.19146 7.28501C7.18068 7.46847 7.23763 7.64951 7.35151 7.79376L7.41001 7.85901C7.53993 7.989 7.71305 8.06678 7.89651 8.07756C8.07998 8.08834 8.26102 8.03139 8.40526 7.91751L8.47051 7.85901L9.79651 6.53301Z" fill="#03B66B"/>
</svg>
