<svg width="41" height="42" viewBox="0 0 41 42" fill="none" xmlns="http://www.w3.org/2000/svg">
<ellipse cx="11.8125" cy="11.6703" rx="11.8125" ry="11.6703" transform="matrix(1 0 0 -1 16.625 41.4946)" fill="#03B66B"/>
<mask id="mask0_5641_138" style="mask-type:alpha" maskUnits="userSpaceOnUse" x="16" y="19" width="24" height="23">
<ellipse cx="11.375" cy="11.2381" rx="11.375" ry="11.2381" transform="matrix(1 0 0 -1 16.625 41.4946)" fill="#03B66B"/>
</mask>
<g mask="url(#mask0_5641_138)">
<path d="M28.4375 45.0674C31.6562 45.0674 34.2499 42.4919 34.25 39.334C34.25 36.176 31.6562 33.6006 28.4375 33.6006C25.2188 33.6006 22.625 36.176 22.625 39.334C22.6251 42.4919 25.2188 45.0674 28.4375 45.0674Z" fill="#03B66B" stroke="white" stroke-width="1.5"/>
<path d="M28.4375 34.6938C30.6897 34.6938 32.5 32.8921 32.5 30.689C32.4998 28.486 30.6896 26.6851 28.4375 26.6851C26.1854 26.6851 24.3752 28.486 24.375 30.689C24.375 32.8921 26.1853 34.6938 28.4375 34.6938Z" fill="#03B66B" stroke="white" stroke-width="1.5"/>
</g>
<ellipse cx="7.875" cy="7.78023" rx="7.875" ry="7.78023" transform="matrix(1 0 0 -1 0 23.3408)" fill="#03B66B"/>
<ellipse cx="4.375" cy="4.32234" rx="4.375" ry="4.32234" transform="matrix(1 0 0 -1 23.625 8.64453)" fill="#03B66B"/>
<path d="M28.0757 4.70779L10.5 15.3564" stroke="#03B66B" stroke-width="1.5"/>
<path d="M20.1352 26.8007L10.459 19.0181" stroke="#03B66B" stroke-width="1.5"/>
</svg>
