<svg width="163" height="162" viewBox="0 0 163 162" fill="none" xmlns="http://www.w3.org/2000/svg">
<path d="M162.5 80.5251C162.5 66.3731 158.701 52.4741 151.491 40.2455C144.281 28.0168 133.917 17.8959 121.457 10.9147C108.997 3.93341 94.8855 0.341565 80.562 0.505362C66.2386 0.669158 52.2152 4.58273 39.9219 11.8471L52.3952 32.4505C61.0005 27.3655 70.8169 24.626 80.8433 24.5113C90.8697 24.3966 100.748 26.9109 109.47 31.7978C118.192 36.6847 125.446 43.7693 130.493 52.3294C135.54 60.8894 138.2 70.6187 138.2 80.5251H162.5Z" fill="#20C979" stroke="white"/>
<path d="M39.9223 11.8472C30.3484 17.5045 22.0606 25.0547 15.5783 34.0245C9.09593 42.9943 4.5589 53.1903 2.25153 63.9734C-0.0558421 74.7565 -0.0838032 85.8943 2.1694 96.6886C4.4226 107.483 8.90839 117.701 15.3456 126.702L35.1919 112.849C30.6859 106.548 27.5458 99.3956 25.9686 91.8396C24.3913 84.2836 24.4109 76.4872 26.0261 68.939C27.6412 61.3908 30.8171 54.2536 35.3548 47.9747C39.8924 41.6959 45.6939 36.4108 52.3956 32.4506L39.9223 11.8472Z" fill="#138C6C" stroke="white"/>
<path d="M15.3457 126.702C25.4099 140.775 39.8031 151.263 56.3848 156.606C72.9665 161.949 90.8509 161.861 107.378 156.356L99.6148 133.607C88.0457 137.461 75.5266 137.522 63.9194 133.782C52.3123 130.042 42.237 122.7 35.192 112.849L15.3457 126.702Z" fill="#0D58C7" stroke="white"/>
<path d="M107.379 156.357C123.443 151.006 137.403 140.81 147.292 127.205C157.181 113.601 162.501 97.2744 162.501 80.5254H138.201C138.201 92.2497 134.477 103.678 127.555 113.201C120.633 122.724 110.86 129.862 99.6152 133.607L107.379 156.357Z" fill="#70DA6D" stroke="white"/>
</svg>
