<svg width="35" height="35" viewBox="0 0 35 35" fill="none" xmlns="http://www.w3.org/2000/svg">
<path d="M17.5 34.5788C27.165 34.5788 35 26.8381 35 17.2894C35 7.74073 27.165 0 17.5 0C7.83502 0 0 7.74073 0 17.2894C0 26.8381 7.83502 34.5788 17.5 34.5788Z" fill="#03B66B"/>
<path d="M24.3125 10.9888H9.6875C9.37637 10.9888 9.125 11.2401 9.125 11.5513V14.3638H24.875V11.5513C24.875 11.2401 24.6236 10.9888 24.3125 10.9888ZM9.125 22.8013C9.125 23.1124 9.37637 23.3638 9.6875 23.3638H24.3125C24.6236 23.3638 24.875 23.1124 24.875 22.8013V15.9106H9.125V22.8013ZM19.3027 19.5669C19.3027 19.4896 19.366 19.4263 19.4434 19.4263H22.3438C22.4211 19.4263 22.4844 19.4896 22.4844 19.5669V20.8325C22.4844 20.9099 22.4211 20.9731 22.3438 20.9731H19.4434C19.366 20.9731 19.3027 20.9099 19.3027 20.8325V19.5669Z" fill="white"/>
</svg>
