<svg width="42" height="42" viewBox="0 0 42 42" fill="none" xmlns="http://www.w3.org/2000/svg">
<g clip-path="url(#clip0_5641_178)">
<path d="M2.46094 14.8493C2.46094 9.89726 4.38931 5.24167 7.8907 1.73996L6.15074 0C2.1844 3.96634 0 9.23973 0 14.8493C0 20.4585 2.1844 25.7319 6.15074 29.6982L7.8907 27.9582C4.38931 24.4565 2.46094 19.8009 2.46094 14.8493Z" fill="#03B66B"/>
<path d="M10.2117 25.6378L11.9519 23.8975C6.96244 18.908 6.96244 10.7895 11.9519 5.80034L10.2117 4.06006C4.26278 10.0092 4.26278 19.6889 10.2117 25.6378Z" fill="#03B66B"/>
<path d="M14.271 21.5773L16.011 19.8373C13.2604 17.0867 13.2604 12.6112 16.011 9.86057L14.271 8.12061C10.5607 11.8306 10.5607 17.8673 14.271 21.5773Z" fill="#03B66B"/>
<path d="M35.8493 0L34.1094 1.73996C37.6108 5.24167 39.5391 9.89726 39.5391 14.8493C39.5391 19.8009 37.6108 24.4565 34.1094 27.9582L35.8493 29.6982C39.8157 25.7319 42.0001 20.4585 42.0001 14.8493C42.0001 9.23973 39.8157 3.96634 35.8493 0V0Z" fill="#03B66B"/>
<path d="M30.0488 23.8975L31.7891 25.6378C37.738 19.6889 37.738 10.0092 31.7891 4.06006L30.0488 5.80034C35.0383 10.7895 35.0383 18.908 30.0488 23.8975Z" fill="#03B66B"/>
<path d="M27.7282 21.5773C31.4386 17.8673 31.4386 11.8306 27.7282 8.12061L25.9883 9.86057C28.7389 12.6112 28.7389 17.0867 25.9883 19.8373L27.7282 21.5773Z" fill="#03B66B"/>
<path d="M22.2308 18.7645C23.8945 18.2406 25.1044 16.6836 25.1044 14.8494C25.1044 12.5865 23.2632 10.7456 21.0003 10.7456C18.7377 10.7456 16.8965 12.5865 16.8965 14.8494C16.8965 16.6836 18.1064 18.2406 19.7701 18.7645V33.7925H22.2308V18.7645Z" fill="#0F227A"/>
<path d="M9.44141 36.2534H32.5592V42.0001H9.44141V36.2534Z" fill="#03B66B"/>
</g>
<defs>
<clipPath id="clip0_5641_178">
<rect width="42" height="42" fill="white"/>
</clipPath>
</defs>
</svg>
