<svg width="45" height="45" viewBox="0 0 45 45" fill="none" xmlns="http://www.w3.org/2000/svg">
<path d="M29.6797 29.4259C27.5832 31.5224 27.8452 35.7528 27.8452 35.7528H17.213C17.213 35.7528 17.4376 31.5224 15.3785 29.4259C13.0948 27.4042 11.6348 24.4841 11.6348 21.227C11.6348 15.237 16.5017 10.3701 22.4917 10.3701C28.4817 10.3701 33.3486 15.237 33.3486 21.227C33.3486 24.4841 31.9259 27.4042 29.6797 29.4259Z" fill="#03B66B"/>
<path d="M28.1457 39.085C28.1457 39.6466 27.6964 40.0959 27.1349 40.0959H17.8878C17.3262 40.0959 16.877 39.6466 16.877 39.085C16.877 38.5235 17.3262 38.0742 17.8878 38.0742H27.0974C27.659 38.0742 28.1457 38.5235 28.1457 39.085Z" fill="#03B66B"/>
<path d="M26.7601 43.2779C26.7601 43.8395 26.3108 44.2887 25.7492 44.2887H19.2725C18.711 44.2887 18.2617 43.8395 18.2617 43.2779C18.2617 42.7163 18.711 42.2671 19.2725 42.2671H25.7492C26.3108 42.2671 26.7601 42.7163 26.7601 43.2779Z" fill="#03B66B"/>
<path d="M30.2416 29.8001C32.6751 27.5913 34.0603 24.484 34.0603 21.2269C34.0603 14.8625 28.8564 9.65869 22.492 9.65869C16.1277 9.65869 10.9238 14.8625 10.9238 21.2269C10.9238 24.5589 12.3839 27.7411 14.8548 29.9124C16.6892 31.7469 16.502 35.6404 16.502 35.6778C16.502 35.865 16.5769 36.0522 16.6892 36.202C16.839 36.3517 17.0262 36.4266 17.2133 36.4266H27.8082C27.9954 36.4266 28.1826 36.3517 28.3323 36.202C28.4821 36.0522 28.5195 35.865 28.5195 35.6778C28.5195 35.6404 28.3323 31.7469 30.1668 29.9124C30.2042 29.875 30.2416 29.8376 30.2416 29.8001ZM29.1934 28.8642C29.1185 28.9016 29.0811 28.9765 29.0436 29.0514C27.3964 30.8109 27.1343 33.6936 27.0969 35.0414H17.9247C17.8872 33.6562 17.5877 30.6612 15.8282 28.9016C13.6193 26.9549 12.3465 24.1845 12.3465 21.2643C12.3465 15.6487 16.9138 11.1188 22.492 11.1188C28.1077 11.1188 32.6376 15.6861 32.6376 21.2643C32.6376 24.147 31.4022 26.9549 29.1934 28.8642Z" fill="#03B66B"/>
<path d="M22.4926 12.6538C22.1182 12.6538 21.7812 12.9533 21.7812 13.3651C21.7812 13.7395 22.0808 14.0764 22.4926 14.0764C26.6856 14.0764 30.0924 17.4833 30.0924 21.6763C30.0924 22.0507 30.3919 22.3876 30.8037 22.3876C31.1781 22.3876 31.515 22.0881 31.515 21.6763C31.515 16.6971 27.4718 12.6538 22.4926 12.6538Z" fill="#03B66B"/>
<path d="M28.8574 39.0849C28.8574 38.1115 28.0712 37.3628 27.1352 37.3628H17.8881C16.9148 37.3628 16.166 38.149 16.166 39.0849C16.166 40.0583 16.9522 40.807 17.8881 40.807H27.0978C28.0712 40.807 28.8574 40.0583 28.8574 39.0849ZM27.0978 39.3844H17.8881C17.701 39.3844 17.5886 39.2347 17.5886 39.0849C17.5886 38.8977 17.7384 38.7854 17.8881 38.7854H27.0978C27.285 38.7854 27.3973 38.9352 27.3973 39.0849C27.4347 39.2721 27.285 39.3844 27.0978 39.3844Z" fill="#03B66B"/>
<path d="M25.7496 41.5557H19.2729C18.2995 41.5557 17.5508 42.3419 17.5508 43.2778C17.5508 44.2512 18.337 44.9999 19.2729 44.9999H25.7496C26.723 44.9999 27.4717 44.2137 27.4717 43.2778C27.4717 42.3419 26.6856 41.5557 25.7496 41.5557ZM25.7496 43.5773H19.2729C19.0857 43.5773 18.9734 43.4275 18.9734 43.2778C18.9734 43.0906 19.1232 42.9783 19.2729 42.9783H25.7496C25.9368 42.9783 26.0491 43.128 26.0491 43.2778C26.0491 43.465 25.9368 43.5773 25.7496 43.5773Z" fill="#03B66B"/>
<path d="M23.2039 5.50333V0.711314C23.2039 0.336938 22.9044 0 22.4926 0C22.1182 0 21.7812 0.299501 21.7812 0.711314V5.54077C21.7812 5.91514 22.0808 6.25208 22.4926 6.25208C22.9044 6.21464 23.2039 5.91514 23.2039 5.50333Z" fill="#03B66B"/>
<path d="M34.2852 3.55657C33.9483 3.33195 33.5364 3.44426 33.3118 3.74376L30.6537 7.74959C30.4291 8.08653 30.5414 8.49834 30.8409 8.72296C30.9532 8.79784 31.103 8.83528 31.2153 8.83528C31.4399 8.83528 31.6646 8.72296 31.8143 8.53578L34.4724 4.52995C34.697 4.23045 34.5847 3.7812 34.2852 3.55657Z" fill="#03B66B"/>
<path d="M14.0325 8.68579C14.1448 8.68579 14.2945 8.64835 14.4069 8.57348C14.7438 8.34885 14.8187 7.93704 14.6315 7.6001L12.0483 3.55684C11.8237 3.2199 11.4118 3.14502 11.0749 3.33221C10.738 3.55684 10.6631 3.96865 10.8503 4.30559L13.4335 8.34885C13.5832 8.57348 13.8079 8.68579 14.0325 8.68579Z" fill="#03B66B"/>
<path d="M4.11067 12.0547L8.34112 14.3384C8.45344 14.4132 8.56575 14.4132 8.67806 14.4132C8.94012 14.4132 9.16475 14.2635 9.3145 14.0389C9.50169 13.7019 9.38938 13.2527 9.015 13.0655L4.78455 10.7818C4.44761 10.5946 3.99836 10.7069 3.81117 11.0813C3.66142 11.4557 3.77374 11.8675 4.11067 12.0547Z" fill="#03B66B"/>
<path d="M36.3078 14.4508C36.4201 14.4508 36.5325 14.4133 36.6448 14.3759L40.8752 12.0922C41.2122 11.905 41.3619 11.4932 41.1747 11.1188C40.9875 10.7819 40.5757 10.6321 40.2013 10.8193L35.9709 13.103C35.634 13.2902 35.4842 13.702 35.6714 14.0764C35.7837 14.301 36.0458 14.4508 36.3078 14.4508Z" fill="#03B66B"/>
</svg>
