<svg width="18" height="18" viewBox="0 0 18 18" fill="none" xmlns="http://www.w3.org/2000/svg">
<path d="M2.37078 3.35175C3.24083 2.48155 4.40778 1.97257 5.63748 1.92694C6.86718 1.88131 8.06864 2.30242 9.00078 3.10575C9.9321 2.30375 11.132 1.88312 12.3602 1.92807C13.5884 1.97302 14.7543 2.48023 15.6245 3.34816C16.4947 4.21608 17.005 5.38067 17.0532 6.60877C17.1013 7.83687 16.6838 9.03784 15.8843 9.97125L10.0605 15.8138C9.79297 16.0814 9.43411 16.238 9.05592 16.2522C8.67773 16.2664 8.30815 16.1371 8.02128 15.8903L7.93878 15.8145L2.11578 9.97125C1.31665 9.03865 0.898967 7.83878 0.946243 6.61154C0.99352 5.38429 1.50227 4.22011 2.37078 3.35175ZM3.43128 4.41225C2.81796 5.02574 2.46442 5.85183 2.44403 6.71908C2.42364 7.58632 2.73797 8.42812 3.32178 9.06975L3.43128 9.18525L9.00003 14.754L12.9773 10.776L10.326 8.12475L9.53103 8.91975C9.32213 9.12875 9.07411 9.29456 8.80113 9.4077C8.52815 9.52085 8.23556 9.57912 7.94006 9.57919C7.34328 9.57933 6.77087 9.34239 6.34878 8.9205C5.92669 8.49861 5.68948 7.92632 5.68934 7.32953C5.6892 6.73274 5.92614 6.16034 6.34803 5.73825L7.92453 4.161C7.29713 3.66028 6.51184 3.39952 5.70955 3.4255C4.90725 3.45147 4.14047 3.76249 3.54678 4.30275L3.43128 4.41225ZM9.79578 6.53325C9.93643 6.39265 10.1272 6.31366 10.326 6.31366C10.5249 6.31366 10.7156 6.39265 10.8563 6.53325L14.0378 9.71475L14.5688 9.18525C15.1924 8.5621 15.5474 7.71969 15.5579 6.83817C15.5684 5.95666 15.2336 5.10601 14.625 4.46817C14.0165 3.83032 13.1825 3.4559 12.3015 3.42499C11.4205 3.39408 10.5623 3.70912 9.91053 4.30275L9.79578 4.41225L7.40928 6.79875C7.27928 6.92866 7.20151 7.10178 7.19073 7.28525C7.17994 7.46872 7.2369 7.64976 7.35078 7.794L7.40928 7.85925C7.53919 7.98925 7.71231 8.06702 7.89578 8.0778C8.07925 8.08859 8.26029 8.03163 8.40453 7.91775L8.46978 7.85925L9.79578 6.53325Z" fill="black"/>
</svg>
