<svg width="18" height="18" viewBox="0 0 18 18" fill="none" xmlns="http://www.w3.org/2000/svg">
<path d="M16.2564 10.9988L15.105 10.0144C15.1595 9.68045 15.1876 9.33944 15.1876 8.99842C15.1876 8.65741 15.1595 8.31639 15.105 7.98241L16.2564 6.99803C16.3432 6.92369 16.4054 6.82467 16.4346 6.71415C16.4638 6.60362 16.4586 6.48682 16.4198 6.37929L16.404 6.33358C16.087 5.44769 15.6124 4.62646 15.003 3.90956L14.9714 3.87265C14.8975 3.78573 14.7989 3.72325 14.6888 3.69344C14.5787 3.66363 14.4621 3.66789 14.3544 3.70566L12.9253 4.21367C12.398 3.78124 11.8091 3.44023 11.1728 3.20117L10.8968 1.70703C10.876 1.5946 10.8214 1.49118 10.7404 1.41048C10.6594 1.32979 10.5558 1.27566 10.4433 1.25527L10.3958 1.24648C9.47999 1.08125 8.51671 1.08125 7.60088 1.24648L7.55342 1.25527C7.44092 1.27566 7.33728 1.32979 7.25627 1.41048C7.17527 1.49118 7.12073 1.5946 7.09991 1.70703L6.82217 3.2082C6.19092 3.44731 5.60307 3.78814 5.08194 4.21718L3.64229 3.70566C3.53465 3.66759 3.41798 3.66317 3.30777 3.693C3.19756 3.72283 3.09904 3.78549 3.0253 3.87265L2.99366 3.90956C2.38501 4.62697 1.91045 5.44806 1.59268 6.33358L1.57686 6.37929C1.49776 6.59901 1.5628 6.84511 1.74034 6.99803L2.90577 7.99295C2.85127 8.32342 2.82491 8.66092 2.82491 8.99666C2.82491 9.33416 2.85127 9.67166 2.90577 10.0004L1.74034 10.9953C1.65349 11.0696 1.59134 11.1687 1.56214 11.2792C1.53293 11.3897 1.53807 11.5065 1.57686 11.614L1.59268 11.6597C1.91084 12.5457 2.38194 13.3631 2.99366 14.0838L3.0253 14.1207C3.09922 14.2076 3.19775 14.2701 3.30789 14.2999C3.41803 14.3297 3.53462 14.3254 3.64229 14.2877L5.08194 13.7761C5.60577 14.2068 6.19112 14.5478 6.82217 14.7851L7.09991 16.2863C7.12073 16.3987 7.17527 16.5022 7.25627 16.5828C7.33728 16.6635 7.44092 16.7177 7.55342 16.7381L7.60088 16.7468C8.52512 16.913 9.47157 16.913 10.3958 16.7468L10.4433 16.7381C10.5558 16.7177 10.6594 16.6635 10.7404 16.5828C10.8214 16.5022 10.876 16.3987 10.8968 16.2863L11.1728 14.7922C11.8088 14.5537 12.401 14.2116 12.9253 13.7797L14.3544 14.2877C14.462 14.3257 14.5787 14.3302 14.6889 14.3003C14.7991 14.2705 14.8977 14.2078 14.9714 14.1207L15.003 14.0838C15.6148 13.3613 16.0858 12.5457 16.404 11.6597L16.4198 11.614C16.4989 11.3978 16.4339 11.1517 16.2564 10.9988ZM13.8569 8.18983C13.9009 8.45526 13.9237 8.72772 13.9237 9.00018C13.9237 9.27264 13.9009 9.5451 13.8569 9.81053L13.7409 10.5154L15.054 11.6386C14.855 12.0972 14.6037 12.5314 14.3052 12.9324L12.6739 12.3541L12.122 12.8076C11.7019 13.1521 11.2343 13.4228 10.728 13.6127L10.0583 13.864L9.74366 15.5691C9.2472 15.6254 8.74598 15.6254 8.24952 15.5691L7.93487 13.8605L7.27042 13.6056C6.76944 13.4158 6.30362 13.1451 5.88702 12.8023L5.33506 12.347L3.69327 12.9306C3.39444 12.5281 3.14483 12.0939 2.94444 11.6369L4.27159 10.5031L4.15733 9.79998C4.11514 9.53807 4.09229 9.26737 4.09229 9.00018C4.09229 8.73123 4.11338 8.46229 4.15733 8.20038L4.27159 7.49725L2.94444 6.36347C3.14307 5.90468 3.39444 5.47226 3.69327 5.06972L5.33506 5.65331L5.88702 5.19804C6.30362 4.85527 6.76944 4.58456 7.27042 4.39472L7.93663 4.14335L8.25128 2.43476C8.74522 2.37851 9.24971 2.37851 9.74542 2.43476L10.0601 4.13984L10.7298 4.3912C11.2343 4.58105 11.7036 4.85175 12.1237 5.19628L12.6757 5.6498L14.3069 5.07148C14.6058 5.47401 14.8554 5.90819 15.0558 6.36522L13.7427 7.48846L13.8569 8.18983ZM9.0001 5.73065C7.29151 5.73065 5.90635 7.11581 5.90635 8.8244C5.90635 10.533 7.29151 11.9181 9.0001 11.9181C10.7087 11.9181 12.0939 10.533 12.0939 8.8244C12.0939 7.11581 10.7087 5.73065 9.0001 5.73065ZM10.3923 10.2166C10.2097 10.3997 9.99269 10.5449 9.75377 10.6439C9.51484 10.7428 9.25871 10.7935 9.0001 10.7931C8.47452 10.7931 7.98057 10.5875 7.60792 10.2166C7.42479 10.034 7.27958 9.81698 7.18063 9.57806C7.08168 9.33913 7.03095 9.083 7.03135 8.8244C7.03135 8.29881 7.23702 7.80487 7.60792 7.43221C7.98057 7.05956 8.47452 6.85565 9.0001 6.85565C9.52569 6.85565 10.0196 7.05956 10.3923 7.43221C10.5754 7.61481 10.7206 7.83181 10.8196 8.07074C10.9185 8.30966 10.9693 8.56579 10.9689 8.8244C10.9689 9.34998 10.7632 9.84393 10.3923 10.2166Z" fill="#03B66B"/>
</svg>
