<svg width="35" height="35" viewBox="0 0 35 35" fill="none" xmlns="http://www.w3.org/2000/svg">
<g clip-path="url(#clip0_5641_170)">
<path d="M14.7475 0.729544C13.7747 -0.243181 12.1976 -0.243181 11.2249 0.729544L9.44754 2.5069C10.5884 4.47102 10.2641 6.95738 8.65785 8.56327C7.05158 10.1695 4.56561 10.4938 2.60148 9.35295L0.824126 11.1307C-0.147105 12.1038 -0.147105 13.6798 0.824126 14.6529L17.5513 31.3805L31.512 17.4941L14.7475 0.729544Z" fill="#03B66B"/>
<path d="M32.4584 18.4404L18.498 32.3268L20.4413 34.2704C21.414 35.2427 22.9911 35.2427 23.9638 34.2704L34.365 23.8692C35.3358 22.8958 35.3358 21.3201 34.365 20.3467L32.4584 18.4404Z" fill="#03B66B"/>
</g>
<defs>
<clipPath id="clip0_5641_170">
<rect width="35" height="35" fill="white"/>
</clipPath>
</defs>
</svg>
