<svg width="18" height="18" viewBox="0 0 18 18" fill="none" xmlns="http://www.w3.org/2000/svg">
<path d="M12.6567 5.0625H2.53174C2.1589 5.06291 1.80146 5.2112 1.53782 5.47483C1.27419 5.73847 1.1259 6.09592 1.12549 6.46875V14.3438C1.1259 14.7166 1.27419 15.074 1.53782 15.3377C1.80146 15.6013 2.1589 15.7496 2.53174 15.75H12.6567C13.0296 15.7496 13.387 15.6013 13.6507 15.3377C13.9143 15.074 14.0626 14.7166 14.063 14.3438V6.46875C14.0626 6.09592 13.9143 5.73847 13.6507 5.47483C13.387 5.2112 13.0296 5.06291 12.6567 5.0625ZM12.3755 14.0625H2.81299V6.75H12.3755V14.0625ZM16.8755 3.65625V12.375C16.8755 12.5988 16.7866 12.8134 16.6284 12.9716C16.4701 13.1299 16.2555 13.2188 16.0317 13.2188C15.808 13.2188 15.5933 13.1299 15.4351 12.9716C15.2769 12.8134 15.188 12.5988 15.188 12.375V3.9375H4.50049C4.27671 3.9375 4.0621 3.84861 3.90387 3.69037C3.74563 3.53214 3.65674 3.31753 3.65674 3.09375C3.65674 2.86997 3.74563 2.65536 3.90387 2.49713C4.0621 2.33889 4.27671 2.25 4.50049 2.25H15.4692C15.8421 2.25041 16.1995 2.3987 16.4632 2.66233C16.7268 2.92597 16.8751 3.28341 16.8755 3.65625Z" fill="#03B66B"/>
</svg>
