<svg width="44" height="44" viewBox="0 0 44 44" fill="none" xmlns="http://www.w3.org/2000/svg">
<path d="M40.1328 24.5352H3.86719C1.73473 24.5352 0 26.2699 0 28.4023V36.1367C0 38.2692 1.73473 40.0039 3.86719 40.0039H5.15625V41.3789C5.15625 42.0914 5.7328 42.668 6.44531 42.668C7.15782 42.668 7.73438 42.0914 7.73438 41.3789V40.0039H36.2656V41.3789C36.2656 42.0914 36.8422 42.668 37.5547 42.668C38.2672 42.668 38.8438 42.0914 38.8438 41.3789V40.0039H40.1328C42.2653 40.0039 44 38.2692 44 36.1367V28.4023C44 26.2699 42.2653 24.5352 40.1328 24.5352ZM28.5312 33.5586C28.5312 34.2711 27.9547 34.8477 27.2422 34.8477C26.5297 34.8477 25.9531 34.2711 25.9531 33.5586V30.9805C25.9531 30.268 26.5297 29.6914 27.2422 29.6914C27.9547 29.6914 28.5312 30.268 28.5312 30.9805V33.5586ZM33.6875 33.5586C33.6875 34.2711 33.1109 34.8477 32.3984 34.8477C31.6859 34.8477 31.1094 34.2711 31.1094 33.5586V30.9805C31.1094 30.268 31.6859 29.6914 32.3984 29.6914C33.1109 29.6914 33.6875 30.268 33.6875 30.9805V33.5586ZM38.8438 33.5586C38.8438 34.2711 38.2672 34.8477 37.5547 34.8477C36.8422 34.8477 36.2656 34.2711 36.2656 33.5586V30.9805C36.2656 30.268 36.8422 29.6914 37.5547 29.6914C38.2672 29.6914 38.8438 30.268 38.8438 30.9805V33.5586Z" fill="#03B66B"/>
<path d="M0.86791 6.59299C0.213238 6.87366 -0.0901213 7.63154 0.190637 8.28484L6.05029 21.9572H8.85425L2.55976 7.27026C2.27909 6.6131 1.51364 6.30845 0.86791 6.59299Z" fill="#03B66B"/>
<path d="M37.9504 21.957L43.81 8.28462C44.0908 7.63124 43.7873 6.87344 43.1327 6.59269C42.4819 6.31073 41.7216 6.61409 41.4408 7.26996L35.1465 21.957H37.9504Z" fill="#03B66B"/>
</svg>
